<svg width="920" height="920" viewBox="0 0 920 920" xmlns="http://www.w3.org/2000/svg" xmlns:xlink="http://www.w3.org/1999/xlink">
    <g id="Paw">
        <g id="g1">
            <path id="Path" fill="#000000" stroke="none" d="M 482.520966 801.063354 C 431.90918 879.876343 347.598083 823.647827 325.071869 784.270508 C 302.545685 744.893188 240.817169 680.357666 240.817169 680.357666 C 240.817169 680.357666 176.105759 618.455078 136.72937 595.927979 C 97.293709 573.460144 41.066219 489.031372 119.819893 438.362274 C 198.573578 387.693176 257.66922 452.404572 361.874573 382.134766 C 466.021606 311.806641 532.137451 389.155945 532.137451 389.155945 C 532.137451 389.155945 609.310791 455.095856 538.983643 559.243835 C 468.596252 663.331604 533.190979 722.308716 482.520966 801.063354 Z M 602.699768 448.368195 C 629.7901 497.45697 701.931885 509.452362 763.894653 475.224274 C 825.79718 441.054474 854.057739 373.59259 826.967407 324.503784 C 799.877075 275.413147 727.735352 263.419617 665.772583 297.647705 C 603.869995 331.817505 575.609497 399.279419 602.699768 448.368195 Z M 778.051697 588.732788 C 756.345764 537.068481 685.899109 517.4104 620.661865 544.849731 C 555.422791 572.290894 520.142029 636.359863 541.908203 687.963928 C 563.67334 739.569031 634.060791 759.286377 699.29895 731.846191 C 764.537109 704.405884 799.75946 640.397217 778.051636 588.732849 Z M 472.516022 318.184387 C 521.605774 345.273743 589.066711 317.014221 623.236511 255.111633 C 657.40625 193.209106 645.353516 121.008057 596.321106 93.976135 C 547.290649 66.944092 479.771423 95.145325 445.600677 157.048828 C 411.431854 218.952332 423.427277 291.094055 472.516022 318.184387 Z M 232.977646 379.033386 C 284.641968 400.741211 348.70993 365.459595 376.091858 300.279724 C 403.473785 235.099854 383.873047 164.595825 332.20871 142.889893 C 280.545349 121.183044 216.477341 156.464722 189.096405 221.643616 C 161.655212 286.880859 181.31427 357.326538 232.977646 379.033386 Z"/>
        </g>
        <g id="g2"/>
        <g id="g3"/>
        <g id="g4"/>
        <g id="g5"/>
        <g id="g6"/>
        <g id="g7"/>
        <g id="g8"/>
        <g id="g9"/>
        <g id="g10"/>
        <g id="g11"/>
        <g id="g12"/>
        <g id="g13"/>
        <g id="g14"/>
        <g id="g15"/>
        <g id="g16"/>
    </g>
    <g id="Curl">
        <path id="Circle-1" fill="#faaf3a" fill-rule="evenodd" stroke="none" d="M 391.033203 609.097656 C 371.408386 609.097656 355.5 593.187378 355.5 573.5625 C 355.5 553.937622 371.408386 538.029297 391.033203 538.029297 C 410.658051 538.029297 426.568359 553.937622 426.568359 573.5625 C 426.568359 593.187378 410.658051 609.097656 391.033203 609.097656 Z M 391.033203 593.951172 C 401.971649 593.951172 410.839844 585.084961 410.839844 574.146484 C 410.839844 563.208008 401.971649 554.339844 391.033203 554.339844 C 380.094727 554.339844 371.228516 563.208008 371.228516 574.146484 C 371.228516 585.084961 380.094727 593.951172 391.033203 593.951172 Z"/>
        <path id="Circle-2" fill="#faaf3a" fill-rule="evenodd" stroke="none" d="M 391.033203 731.427734 C 371.408386 731.427734 355.5 715.517456 355.5 695.892578 C 355.5 676.2677 371.408386 660.359375 391.033203 660.359375 C 410.658051 660.359375 426.568359 676.2677 426.568359 695.892578 C 426.568359 715.517456 410.658051 731.427734 391.033203 731.427734 Z M 391.033203 716.28125 C 401.971649 716.28125 410.839844 707.415039 410.839844 696.476563 C 410.839844 685.538147 401.971649 676.669922 391.033203 676.669922 C 380.094727 676.669922 371.228516 685.538147 371.228516 696.476563 C 371.228516 707.415039 380.094727 716.28125 391.033203 716.28125 Z"/>
        <path id="Circle-3" fill="#faaf3a" fill-rule="evenodd" stroke="none" d="M 463.267578 840.941406 C 443.642731 840.941406 427.732422 825.033081 427.732422 805.408203 C 427.732422 785.783325 443.642731 769.873047 463.267578 769.873047 C 482.892426 769.873047 498.800781 785.783325 498.800781 805.408203 C 498.800781 825.033081 482.892426 840.941406 463.267578 840.941406 Z M 463.267578 825.796875 C 474.206024 825.796875 483.072266 816.928711 483.072266 805.990234 C 483.072266 795.051758 474.206024 786.183594 463.267578 786.183594 C 452.329102 786.183594 443.460938 795.051758 443.460938 805.990234 C 443.460938 816.928711 452.329102 825.796875 463.267578 825.796875 Z"/>
        <path id="Circle-4" fill="#faaf3a" fill-rule="evenodd" stroke="none" d="M 608.898438 840.941406 C 589.27356 840.941406 573.363281 825.033081 573.363281 805.408203 C 573.363281 785.783325 589.27356 769.873047 608.898438 769.873047 C 628.523315 769.873047 644.431641 785.783325 644.431641 805.408203 C 644.431641 825.033081 628.523315 840.941406 608.898438 840.941406 Z M 608.898438 825.796875 C 619.836853 825.796875 628.703125 816.928711 628.703125 805.990234 C 628.703125 795.051758 619.836853 786.183594 608.898438 786.183594 C 597.959961 786.183594 589.091797 795.051758 589.091797 805.990234 C 589.091797 816.928711 597.959961 825.796875 608.898438 825.796875 Z"/>
        <path id="Circle-5" fill="#faaf3a" fill-rule="evenodd" stroke="none" d="M 799.966797 510.068359 C 780.341919 510.068359 764.431641 494.158051 764.431641 474.533203 C 764.431641 454.908386 780.341919 439 799.966797 439 C 819.591675 439 835.5 454.908386 835.5 474.533203 C 835.5 494.158051 819.591675 510.068359 799.966797 510.068359 Z M 799.966797 494.921875 C 810.905273 494.921875 819.771484 486.055634 819.771484 475.117188 C 819.771484 464.178711 810.905273 455.310547 799.966797 455.310547 C 789.028381 455.310547 780.160156 464.178711 780.160156 475.117188 C 780.160156 486.055634 789.028381 494.921875 799.966797 494.921875 Z"/>
        <path id="Circle-6" fill="#faaf3a" fill-rule="evenodd" stroke="none" d="M 655.5 510.068359 C 635.875122 510.068359 619.966797 494.158051 619.966797 474.533203 C 619.966797 454.908386 635.875122 439 655.5 439 C 675.124878 439 691.033203 454.908386 691.033203 474.533203 C 691.033203 494.158051 675.124878 510.068359 655.5 510.068359 Z M 655.5 494.921875 C 666.438477 494.921875 675.306641 486.055634 675.306641 475.117188 C 675.306641 464.178711 666.438477 455.310547 655.5 455.310547 C 644.561523 455.310547 635.693359 464.178711 635.693359 475.117188 C 635.693359 486.055634 644.561523 494.921875 655.5 494.921875 Z"/>
        <path id="Bar-1" fill="#faaf3a" fill-rule="evenodd" stroke="none" d="M 457.061646 771.707642 L 497.951111 795.315125 L 663.092224 509.282318 L 622.202759 485.674774 Z"/>
        <path id="Bar-2" fill="#faaf3a" fill-rule="evenodd" stroke="none" d="M 602.692688 771.707642 L 643.582153 795.315125 L 808.723267 509.282318 L 767.833862 485.674774 Z"/>
    </g>
</svg>
