<?xml version="1.0" encoding="UTF-8"?>
<svg width="920" height="920" viewBox="0 0 920 920" xmlns="http://www.w3.org/2000/svg">
<path d="m482.52 801.06c-50.612 78.813-134.92 22.584-157.45-16.793-22.526-39.377-84.255-103.91-84.255-103.91s-64.711-61.903-104.09-84.43c-39.436-22.468-95.663-106.9-16.909-157.57 78.754-50.669 137.85 14.042 242.05-56.228 104.15-70.328 170.26 7.0212 170.26 7.0212s77.173 65.94 6.8462 170.09c-70.387 104.09-5.7927 163.06-56.463 241.82zm120.18-352.7c27.09 49.089 99.232 61.084 161.19 26.856 61.903-34.17 90.163-101.63 63.073-150.72-27.09-49.091-99.232-61.084-161.19-26.856-61.903 34.17-90.163 101.63-63.073 150.72zm175.35 140.36c-21.706-51.664-92.153-71.322-157.39-43.883-65.239 27.441-100.52 91.51-78.754 143.11 21.765 51.605 92.153 71.322 157.39 43.882 65.238-27.44 100.46-91.449 78.753-143.11zm-305.54-270.55c49.09 27.089 116.55-1.1702 150.72-63.073 34.17-61.903 22.117-134.1-26.915-161.14-49.03-27.032-116.55 1.1692-150.72 63.073-34.169 61.904-22.173 134.05 26.915 161.14zm-239.54 60.849c51.664 21.708 115.73-13.574 143.11-78.754 27.382-65.18 7.7812-135.68-43.883-157.39-51.663-21.707-115.73 13.575-143.11 78.754-27.441 65.237-7.7821 135.68 43.881 157.39z"/>
<g fill="#faaf3a" fill-rule="evenodd">
<path d="m391.03 609.1c-19.625 0-35.533-15.91-35.533-35.535s15.908-35.533 35.533-35.533c19.625 0 35.535 15.908 35.535 35.533s-15.91 35.535-35.535 35.535zm0-15.146c10.938 0 19.807-8.8662 19.807-19.805 0-10.938-8.8682-19.807-19.807-19.807-10.938 0-19.805 8.8682-19.805 19.807 0 10.938 8.8662 19.805 19.805 19.805z"/>
<path d="m391.03 731.43c-19.625 0-35.533-15.91-35.533-35.535s15.908-35.533 35.533-35.533c19.625 0 35.535 15.908 35.535 35.533s-15.91 35.535-35.535 35.535zm0-15.146c10.938 0 19.807-8.8662 19.807-19.805 0-10.938-8.8682-19.807-19.807-19.807-10.938 0-19.805 8.8682-19.805 19.807 0 10.938 8.8662 19.805 19.805 19.805z"/>
<path d="m463.27 840.94c-19.625 0-35.535-15.908-35.535-35.533s15.91-35.535 35.535-35.535c19.625 0 35.533 15.91 35.533 35.535s-15.908 35.533-35.533 35.533zm0-15.145c10.938 0 19.805-8.8682 19.805-19.807 0-10.938-8.8662-19.807-19.805-19.807-10.938 0-19.807 8.8682-19.807 19.807 0 10.938 8.8682 19.807 19.807 19.807z"/>
<path d="m608.9 840.94c-19.625 0-35.535-15.908-35.535-35.533s15.91-35.535 35.535-35.535c19.625 0 35.533 15.91 35.533 35.535s-15.908 35.533-35.533 35.533zm0-15.145c10.938 0 19.805-8.8682 19.805-19.807 0-10.938-8.8663-19.807-19.805-19.807-10.938 0-19.807 8.8682-19.807 19.807 0 10.938 8.8682 19.807 19.807 19.807z"/>
<path d="m799.97 510.07c-19.625 0-35.535-15.91-35.535-35.535 0-19.625 15.91-35.533 35.535-35.533s35.533 15.908 35.533 35.533c0 19.625-15.908 35.535-35.533 35.535zm0-15.146c10.938 0 19.805-8.8662 19.805-19.805 0-10.938-8.8662-19.807-19.805-19.807-10.938 0-19.807 8.8682-19.807 19.807 0 10.938 8.8682 19.805 19.807 19.805z"/>
<path d="m655.5 510.07c-19.625 0-35.533-15.91-35.533-35.535 0-19.625 15.908-35.533 35.533-35.533s35.533 15.908 35.533 35.533c0 19.625-15.908 35.535-35.533 35.535zm0-15.146c10.938 0 19.807-8.8662 19.807-19.805 0-10.938-8.8682-19.807-19.807-19.807s-19.807 8.8682-19.807 19.807c0 10.938 8.8682 19.805 19.807 19.805z"/>
<path d="m457.06 771.71 40.889 23.607 165.14-286.03-40.889-23.608z"/>
<path d="m602.69 771.71 40.889 23.607 165.14-286.03-40.889-23.608z"/>
</g>
</svg>
